HIERARCHY
ROOT joint_Root
{
	OFFSET 0.0 0.0 0.0
	CHANNELS 6 Xposition Yposition Zposition Zrotation Xrotation Yrotation 
	JOINT Hips
	{
		OFFSET 4.5925 91.4895 -427.239
		CHANNELS 6 Xposition Yposition Zposition Zrotation Xrotation Yrotation 
		JOINT Spine
		{
			OFFSET 15.7357 0.0 0.0
			CHANNELS 6 Xposition Yposition Zposition Zrotation Xrotation Yrotation 
			JOINT Chest
			{
				OFFSET 8.98455 -0.406207 0.0
				CHANNELS 6 Xposition Yposition Zposition Zrotation Xrotation Yrotation 
				JOINT Neck
				{
					OFFSET 16.3773 0.0 0.0
					CHANNELS 6 Xposition Yposition Zposition Zrotation Xrotation Yrotation 
					JOINT Head
					{
						OFFSET 6.45672 0.0 0.0
						CHANNELS 6 Xposition Yposition Zposition Zrotation Xrotation Yrotation 
						End Site
						{
							OFFSET 0.0 0.0 0.0
						}
					}
				}
				JOINT Shoulder_L
				{
					OFFSET 12.9942 -0.242716 4.98039
					CHANNELS 6 Xposition Yposition Zposition Zrotation Xrotation Yrotation 
					JOINT UpperArm_L
					{
						OFFSET 5.34809 0.0 0.0
						CHANNELS 6 Xposition Yposition Zposition Zrotation Xrotation Yrotation 
						JOINT LowerArm_L
						{
							OFFSET 24.3286 1.87007e-05 0.0
							CHANNELS 6 Xposition Yposition Zposition Zrotation Xrotation Yrotation 
							JOINT Hand_L
							{
								OFFSET 22.2916 0.0 0.0
								CHANNELS 6 Xposition Yposition Zposition Zrotation Xrotation Yrotation 
								End Site
								{
									OFFSET 0.0 0.0 0.0
								}
							}
						}
					}
				}
				JOINT Shoulder_R
				{
					OFFSET 12.9945 -0.242716 -4.98039
					CHANNELS 6 Xposition Yposition Zposition Zrotation Xrotation Yrotation 
					JOINT UpperArm_R
					{
						OFFSET -5.34813 0.0 0.0
						CHANNELS 6 Xposition Yposition Zposition Zrotation Xrotation Yrotation 
						JOINT LowerArm_R
						{
							OFFSET -24.3289 0.000322201 0.0
							CHANNELS 6 Xposition Yposition Zposition Zrotation Xrotation Yrotation 
							JOINT Hand_R
							{
								OFFSET -22.2915 -0.000108084 0.0
								CHANNELS 6 Xposition Yposition Zposition Zrotation Xrotation Yrotation 
								End Site
								{
									OFFSET 0.0 0.0 0.0
								}
							}
						}
					}
				}
			}
		}
		JOINT UpperLeg_L
		{
			OFFSET -2.19248 -6.46944 0.0
			CHANNELS 6 Xposition Yposition Zposition Zrotation Xrotation Yrotation 
			JOINT LowerLeg_L
			{
				OFFSET 39.0811 0.0 -1.23785e-05
				CHANNELS 6 Xposition Yposition Zposition Zrotation Xrotation Yrotation 
				JOINT Foot_L
				{
					OFFSET 40.9854 0.0 -1.26872e-05
					CHANNELS 6 Xposition Yposition Zposition Zrotation Xrotation Yrotation 
					JOINT Toes_L
					{
						OFFSET 11.7543 0.0 0.0
						CHANNELS 6 Xposition Yposition Zposition Zrotation Xrotation Yrotation 
						End Site
						{
							OFFSET 0.0 0.0 0.0
						}
					}
				}
			}
		}
		JOINT UpperLeg_R
		{
			OFFSET -2.19251 6.46944 0.0
			CHANNELS 6 Xposition Yposition Zposition Zrotation Xrotation Yrotation 
			JOINT LowerLeg_R
			{
				OFFSET -39.0811 -0.00228153 -0.0401928
				CHANNELS 6 Xposition Yposition Zposition Zrotation Xrotation Yrotation 
				JOINT Foot_R
				{
					OFFSET -40.9854 0.0 0.0
					CHANNELS 6 Xposition Yposition Zposition Zrotation Xrotation Yrotation 
					JOINT Toes_R
					{
						OFFSET -11.7543 0.0 0.0
						CHANNELS 6 Xposition Yposition Zposition Zrotation Xrotation Yrotation 
						End Site
						{
							OFFSET 0.0 0.0 0.0
						}
					}
				}
			}
		}
	}
}
MOTION
Frames:	7
Frame Time:	0.0333333
0.000000 0.000000 0.000000 0.000000 0.000000 -0.000000 -0.733838 89.828300 -0.269539 88.733300 -2.523670 12.527200 15.735700 0.000005 -0.000001 88.992000 78.946000 -88.491300 8.984550 -0.406207 -0.000000 14.340500 -0.355561 1.046770 16.377300 -0.000001 -0.000001 7.458830 -4.412930 3.962550 6.456720 -0.000001 -0.000000 -0.439568 -4.088520 7.240530 12.994200 -0.242716 4.980390 -90.904500 3.385160 -75.030900 5.348090 -0.000007 -0.000001 -55.458200 -0.388721 -57.854600 24.328600 0.000019 0.000005 39.236200 -15.367400 -107.979000 22.291600 -0.000001 0.000005 27.373100 5.050080 6.235150 12.994500 -0.242716 -4.980390 88.952100 11.854400 -84.911600 -5.348130 -0.000001 -0.000004 -57.469800 36.894200 -20.495400 -24.328900 0.000322 -0.000009 1.279710 3.653360 -19.334300 -22.291500 -0.000108 -0.000004 12.328200 5.415800 -3.458090 -2.192480 -6.469440 -0.000000 -174.336000 -10.355200 -0.706187 39.081100 -0.000007 -0.000012 -0.250458 0.342068 36.211700 40.985400 -0.000006 -0.000013 0.556819 3.842810 -72.863200 11.754300 -0.000000 0.000003 -0.000198 -0.001836 -16.646800 -2.192510 6.469440 -0.000001 174.424000 18.741100 -178.791000 -39.081100 -0.002282 -0.040193 -0.264174 0.386839 34.660900 -40.985400 0.000008 0.000006 3.119680 10.936300 -72.775500 -11.754300 -0.000006 -0.000006 -0.002429 -0.033967 -17.954400
0.000000 0.000000 0.000000 0.000000 0.000000 -0.000000 -0.728742 89.831400 -0.251293 88.729000 -2.755980 12.504700 15.735700 0.000005 -0.000001 88.878100 78.939800 -88.384200 8.984550 -0.406207 -0.000000 14.352400 -0.399561 1.038650 16.377300 -0.000001 -0.000001 7.475580 -4.436610 3.879520 6.456720 -0.000001 -0.000000 -0.464803 -4.061030 7.319820 12.994200 -0.242716 4.980390 -90.915700 3.417070 -74.989400 5.348090 -0.000007 -0.000001 -53.819400 0.908458 -58.422900 24.328600 0.000019 0.000005 39.018400 -15.855300 -108.632000 22.291600 -0.000001 0.000005 27.315100 5.051750 6.198410 12.994500 -0.242716 -4.980390 88.952100 11.845000 -84.907800 -5.348130 -0.000001 -0.000004 -57.476000 36.929600 -20.567400 -24.328900 0.000322 -0.000009 1.290060 3.664970 -19.421900 -22.291500 -0.000108 -0.000004 12.327800 5.415810 -3.458510 -2.192480 -6.469440 -0.000000 -174.311000 -10.491800 -0.661808 39.081100 -0.000007 -0.000012 -0.250031 0.341845 36.182900 40.985400 -0.000006 -0.000013 0.528184 3.749600 -72.883200 11.754300 -0.000000 0.000003 -0.000188 -0.001756 -16.643900 -2.192510 6.469440 -0.000001 174.453000 18.614900 -178.823000 -39.081100 -0.002282 -0.040193 -0.265021 0.388324 34.643000 -40.985400 0.000008 0.000006 3.117850 11.046700 -72.758500 -11.754300 -0.000006 -0.000006 -0.002493 -0.034723 -17.985100
0.000000 0.000000 0.000000 0.000000 0.000000 -0.000000 -0.727489 89.828700 -0.226248 88.730000 -3.019400 12.508700 15.735700 0.000005 -0.000001 88.827700 78.928300 -88.342200 8.984550 -0.406207 -0.000000 14.374900 -0.419639 1.024330 16.377300 -0.000001 -0.000001 7.500200 -4.436930 3.877390 6.456720 -0.000001 -0.000000 -0.467966 -4.082970 7.330450 12.994200 -0.242716 4.980390 -90.908200 3.390260 -74.994100 5.348090 -0.000007 -0.000001 -52.274000 1.953860 -58.948500 24.328600 0.000019 0.000005 38.922500 -16.277600 -109.141000 22.291600 -0.000001 0.000005 27.208700 5.064920 5.906170 12.994500 -0.242716 -4.980390 88.950100 11.848000 -84.899300 -5.348130 -0.000001 -0.000004 -57.552400 36.891400 -20.506300 -24.328900 0.000322 -0.000009 1.315670 3.721800 -19.498900 -22.291500 -0.000108 -0.000004 12.283800 5.416620 -3.485430 -2.192480 -6.469440 -0.000000 -174.274000 -10.644900 -0.583221 39.081100 -0.000007 -0.000012 -0.249638 0.341481 36.169000 40.985400 -0.000006 -0.000013 0.486013 3.639670 -72.921400 11.754300 -0.000000 0.000003 -0.000191 -0.001783 -16.644900 -2.192510 6.469440 -0.000001 174.468000 18.478400 -178.839000 -39.081100 -0.002282 -0.040193 -0.267569 0.391944 34.647600 -40.985400 0.000008 0.000006 3.087260 11.172800 -72.746900 -11.754300 -0.000006 -0.000006 -0.002447 -0.034177 -17.962900
0.000000 0.000000 0.000000 0.000000 0.000000 -0.000000 -0.732699 89.826900 -0.211269 88.709700 -3.251790 12.471600 15.735700 0.000005 -0.000001 88.662700 78.930500 -88.163000 8.984550 -0.406207 -0.000000 14.369600 -0.481734 1.060510 16.377300 -0.000001 -0.000001 7.481520 -4.433300 3.827370 6.456720 -0.000001 -0.000000 -0.426368 -4.048070 7.274460 12.994200 -0.242716 4.980390 -90.905400 3.393600 -75.052700 5.348090 -0.000007 -0.000001 -51.047600 2.516290 -59.266900 24.328600 0.000019 0.000005 39.166300 -16.738500 -109.471000 22.291600 -0.000001 0.000005 26.880600 5.082340 5.515320 12.994500 -0.242716 -4.980390 88.960100 11.790800 -84.923500 -5.348130 -0.000001 -0.000004 -57.627700 36.934200 -20.475300 -24.328900 0.000322 -0.000009 1.323210 3.751420 -19.459200 -22.291500 -0.000108 -0.000004 12.311000 5.416760 -3.490350 -2.192480 -6.469440 -0.000000 -174.223000 -10.787600 -0.571858 39.081100 -0.000007 -0.000012 -0.251623 0.344162 36.171800 40.985400 -0.000006 -0.000013 0.460090 3.577420 -72.952700 11.754300 -0.000000 0.000003 -0.000174 -0.001650 -16.640000 -2.192510 6.469440 -0.000001 174.557000 18.300900 -178.900000 -39.081100 -0.002282 -0.040193 -0.264245 0.386952 34.660100 -40.985400 0.000008 0.000006 3.183930 11.193100 -72.775300 -11.754300 -0.000006 -0.000006 -0.002704 -0.037207 -18.086200
0.000000 0.000000 0.000000 0.000000 0.000000 -0.000000 -0.737589 89.828700 -0.180894 88.707800 -3.532000 12.468300 15.735700 0.000005 -0.000001 88.545300 78.914800 -88.032900 8.984550 -0.406207 -0.000000 14.400300 -0.526400 1.091870 16.377300 -0.000001 -0.000001 7.462830 -4.447170 3.763080 6.456720 -0.000001 -0.000000 -0.412133 -4.024830 7.267640 12.994200 -0.242716 4.980390 -90.907100 3.408330 -75.087900 5.348090 -0.000007 -0.000001 -50.294800 2.651470 -59.377000 24.328600 0.000019 0.000005 39.206900 -17.009400 -109.727000 22.291600 -0.000001 0.000005 26.893700 5.096170 5.201230 12.994500 -0.242716 -4.980390 88.954400 11.761800 -84.883500 -5.348130 -0.000001 -0.000004 -57.667600 36.971100 -20.456300 -24.328900 0.000322 -0.000009 1.322450 3.770530 -19.357800 -22.291500 -0.000108 -0.000004 12.263300 5.416330 -3.475730 -2.192480 -6.469440 -0.000000 -174.169000 -10.986400 -0.492190 39.081100 -0.000007 -0.000012 -0.249919 0.342221 36.140600 40.985400 -0.000006 -0.000013 0.419857 3.487550 -72.977600 11.754300 -0.000000 0.000003 -0.000199 -0.001841 -16.647000 -2.192510 6.469440 -0.000001 174.595000 18.139000 -178.925000 -39.081100 -0.002282 -0.040193 -0.265651 0.389098 34.652500 -40.985400 0.000008 0.000006 3.199820 11.300700 -72.764400 -11.754300 -0.000006 -0.000006 -0.002443 -0.034135 -17.961200
0.000000 0.000000 0.000000 0.000000 0.000000 -0.000000 -0.748632 89.825300 -0.158799 88.698500 -3.843090 12.446000 15.735700 0.000005 -0.000001 88.477600 78.916800 -87.951600 8.984550 -0.406207 -0.000000 14.395700 -0.551404 1.122140 16.377300 -0.000001 -0.000001 7.487940 -4.433380 3.742870 6.456720 -0.000001 -0.000000 -0.401182 -3.998940 7.298690 12.994200 -0.242716 4.980390 -90.905600 3.399610 -75.073800 5.348090 -0.000007 -0.000001 -50.222500 2.410270 -59.247100 24.328600 0.000019 0.000005 39.120400 -17.038900 -109.814000 22.291600 -0.000001 0.000005 26.966600 5.105930 4.977240 12.994500 -0.242716 -4.980390 88.947200 11.760900 -84.848000 -5.348130 -0.000001 -0.000004 -57.748500 36.960100 -20.312700 -24.328900 0.000322 -0.000009 1.310100 3.752340 -19.276500 -22.291500 -0.000108 -0.000004 12.264800 5.415640 -3.452670 -2.192480 -6.469440 -0.000000 -174.101000 -11.177800 -0.433122 39.081100 -0.000007 -0.000012 -0.253674 0.347477 36.131600 40.985400 -0.000006 -0.000013 0.376669 3.412080 -73.020900 11.754300 -0.000000 0.000003 -0.000186 -0.001744 -16.643500 -2.192510 6.469440 -0.000001 174.691000 17.862100 -178.995000 -39.081100 -0.002282 -0.040193 -0.263570 0.385851 34.668800 -40.985400 0.000008 0.000006 3.196210 11.322200 -72.760300 -11.754300 -0.000006 -0.000006 -0.002403 -0.033649 -17.941400
0.000000 0.000000 0.000000 0.000000 0.000000 -0.000000 -0.747975 89.825200 -0.143616 88.686400 -4.144900 12.386700 15.735700 0.000005 -0.000001 88.435800 78.936600 -87.888900 8.984550 -0.406207 -0.000000 14.356100 -0.565344 1.165550 16.377300 -0.000001 -0.000001 7.558410 -4.457790 3.773890 6.456720 -0.000001 -0.000000 -0.406796 -4.063250 7.349590 12.994200 -0.242716 4.980390 -90.905700 3.396480 -75.060300 5.348090 -0.000007 -0.000001 -50.799000 1.821340 -58.894900 24.328600 0.000019 0.000005 39.162800 -16.990100 -109.736000 22.291600 -0.000001 0.000005 26.839000 5.100360 5.105180 12.994500 -0.242716 -4.980390 88.937200 11.776900 -84.806400 -5.348130 -0.000001 -0.000004 -57.813300 36.938400 -20.075100 -24.328900 0.000322 -0.000009 1.309160 3.759230 -19.231000 -22.291500 -0.000108 -0.000004 12.303500 5.415340 -3.442850 -2.192480 -6.469440 -0.000000 -174.059000 -11.347900 -0.431396 39.081100 -0.000007 -0.000012 -0.256425 0.351376 36.121500 40.985400 -0.000006 -0.000013 0.332636 3.299060 -73.046900 11.754300 -0.000000 0.000003 -0.000193 -0.001793 -16.645300 -2.192510 6.469440 -0.000001 174.769000 17.678500 -179.097000 -39.081100 -0.002282 -0.040193 -0.264755 0.387455 34.676400 -40.985400 0.000008 0.000006 3.225600 11.394800 -72.750800 -11.754300 -0.000006 -0.000006 -0.002484 -0.034621 -17.980900
